<!--?xml version="1.0" encoding="utf-8"?-->
<!-- Generator: Adobe Illustrator 18.1.1, SVG Export Plug-In . SVG Version: 6.00 Build 0)  -->

<svg version="1.1" id="_x32_" xmlns="http://www.w3.org/2000/svg" xmlns:xlink="http://www.w3.org/1999/xlink" x="0px" y="0px" viewBox="0 0 512 512" style="width: 128px; height: 128px; opacity: 1;" xml:space="preserve">
<style type="text/css">
	.st0{fill:#4B4B4B;}
</style>
<g>
	<path class="st0" d="M256,0C114.616,0,0,114.609,0,256c0,141.377,114.616,256,256,256s256-114.623,256-256
		C512,114.609,397.384,0,256,0z M361.008,244.312l-95.225,131.914c-2.275,3.144-5.913,5-9.782,5c-3.87,0-7.514-1.855-9.783-5
		l-95.232-131.914c-2.398-3.71-2.304-8.522,0.246-12.13c2.551-3.623,7.036-5.334,11.348-4.334l46.624,10.898v-89.333
		c0-8.653,7.014-15.682,15.681-15.682h62.232c8.666,0,15.681,7.029,15.681,15.682v89.333l46.623-10.898
		c4.312-1,8.798,0.71,11.348,4.334C363.319,235.79,363.406,240.602,361.008,244.312z" style="fill: rgb(58, 171, 210);"></path>
</g>
</svg>
