<svg width="190" height="93" viewBox="0 0 190 93" fill="none" xmlns="http://www.w3.org/2000/svg">
<path d="M189 1H0V93H189V1Z" fill="white"/>
<path d="M33.1223 53.9123V51.8718H12.0652V53.9123H33.1223ZM33.1223 59.5782V57.4942H12.0652V59.5782H33.1223ZM39.0487 48.0728V63.3772H6.37764V48.0728H39.0487ZM36.2266 76.2285H29.4753C30.2568 77.8783 31.3748 79.501 32.8401 81.0912C34.2837 79.5282 35.4125 77.9109 36.2266 76.2285ZM9.87268 82.1549V84.5645C12.9553 84.3474 15.1098 84.19 16.3418 84.0869V82.1549H9.87268ZM9.87268 75.9897V78.0737H16.3418V75.9897H9.87268ZM16.3418 69.868H9.87268V71.8651H16.3418V69.868ZM39.6782 71.5178L43.3252 72.8854C41.9902 77.4442 39.9007 81.3408 37.0515 84.5645C39.5805 86.2578 42.5003 87.4897 45.8 88.2549C44.4378 89.5574 43.271 91.0987 42.3049 92.8788C38.7014 91.8042 35.6242 90.2629 33.0789 88.2549C30.6747 90.1056 27.858 91.6469 24.6344 92.8788C24.1134 91.7771 23.2342 90.4475 22.0076 88.8845V92.9222H16.3418V88.8845C8.01662 89.666 2.75778 90.149 0.559808 90.3389L0.125641 85.2592C0.386141 85.232 1.01568 85.1941 2.01427 85.1506C3.0237 85.0964 3.83777 85.0312 4.4456 84.9553V69.868H0.559808V65.2224H44.7797V69.868H22.0076V88.0596C24.6235 87.1912 26.968 85.9973 29.0411 84.4777C27.3045 82.41 25.7957 79.9515 24.5258 77.0968L27.7821 76.2285H23.2233V71.7132H38.7014L39.6782 71.5178Z" fill="#222222"/>
<path d="M96.9944 57.9718H103.637C104.055 56.9732 104.473 55.8335 104.896 54.5419H95.8221C96.4734 55.801 96.8641 56.9461 96.9944 57.9718ZM110.041 79.1808V62.4437H102.617V65.0704H108.5V68.6089H102.617V71.3658H107.284V80.0058H109.26C109.781 79.9786 110.041 79.7018 110.041 79.1808ZM103.203 77.4442V74.6655H97.8627V77.4442H103.203ZM90.395 54.7373L91.2634 54.5419H84.664V49.918H97.3851V46.5315H103.051V49.918H116.51V54.5419H110.779C110.546 55.0195 110.22 55.6436 109.802 56.4088C109.379 57.1632 109.108 57.6842 108.977 57.9718H115.425V79.3328C115.425 80.5919 115.284 81.5633 115.012 82.2417C114.735 82.9255 114.214 83.4737 113.449 83.8916C112.277 84.4451 110.041 84.7165 106.741 84.7165C106.655 83.821 106.269 82.5131 105.591 80.7873H97.8627V82.2851H93.8466V71.3658H98.4054V68.6089H92.5659V65.0704H98.4054V62.4437H91.3068V84.5211H85.9665V57.9718H91.6541C91.4207 56.9189 91.0029 55.839 90.395 54.7373ZM83.9476 55.649L79.085 59.3828C77.6631 56.9678 75.1775 54.2163 71.6173 51.1337L76.1326 47.7472C79.7471 50.6887 82.3521 53.3208 83.9476 55.649ZM82.58 65.7868V81.6556C84.3601 84.7382 87.8551 86.3772 93.0651 86.5617C101.369 86.8819 109.553 86.7353 117.617 86.1275C116.749 87.9402 116.13 89.8613 115.772 91.9019C107.707 92.2927 100.126 92.3415 93.0217 92.0539C89.9663 91.9236 87.421 91.4352 85.3804 90.5994C83.3507 89.7582 81.6086 88.4015 80.1487 86.5183C77.9453 88.6457 75.7636 90.632 73.5928 92.4881L70.8358 86.6051C73.1369 85.1289 75.1883 83.6093 77.001 82.0463V71.2356H71.4219V65.7868H82.58Z" fill="#222222"/>
<path d="M155.092 47.161L160.953 49.0931C159.531 52.3927 157.806 55.7467 155.765 59.144V92.8137H149.839V67.5018C148.286 69.3687 146.658 71.1162 144.954 72.7335C143.912 70.2479 142.762 68.1639 141.503 66.4815C144.222 64.1804 146.799 61.3149 149.231 57.885C151.673 54.455 153.627 50.884 155.092 47.161ZM173.37 86.8005H180.664C181.82 86.8005 182.596 86.2523 182.987 85.1506C183.378 84.0544 183.666 81.7099 183.856 78.1171C185.549 79.3762 187.361 80.2174 189.304 80.6353C188.941 85.0367 188.208 88.0813 187.112 89.7745C186.01 91.4786 184.035 92.3361 181.185 92.3361H172.697C169.555 92.3361 167.428 91.7065 166.315 90.4475C165.197 89.1884 164.644 86.8113 164.644 83.3054V47.7906H170.613V64.8316C175.243 62.1724 179.416 59.2526 183.139 56.0832L187.546 61.2715C183.302 64.3269 177.658 67.518 170.613 70.8448V83.3705C170.613 84.8196 170.771 85.753 171.091 86.1709C171.422 86.5942 172.182 86.8005 173.37 86.8005Z" fill="#222222"/>
<path d="M17.8614 0.990616C16.8303 0.990616 15.81 1.09373 14.8005 1.29453C13.7857 1.49533 12.8034 1.79382 11.8536 2.19C10.8985 2.58075 9.99214 3.06376 9.13466 3.63903C8.27718 4.2143 7.48482 4.86555 6.75759 5.59278C6.02494 6.32001 5.37369 7.11779 4.80384 7.97527C4.22857 8.83275 3.74556 9.73365 3.34938 10.6888C2.95321 11.644 2.66015 12.6209 2.45392 13.6357C2.25311 14.6452 2.15543 15.6655 2.15543 16.702C2.15543 17.7332 2.25311 18.7535 2.45392 19.7629C2.66015 20.7778 2.95321 21.7601 3.34938 22.7098C3.74556 23.665 4.22857 24.5713 4.80384 25.4288C5.37369 26.2863 6.02494 27.0786 6.75759 27.8058C7.48482 28.5331 8.27718 29.1843 9.13466 29.7596C9.99214 30.3349 10.8985 30.8179 11.8536 31.214C12.8034 31.6048 13.7857 31.9033 14.8005 32.1041C15.81 32.3049 16.8303 32.408 17.8614 32.408C18.8926 32.408 19.9128 32.3049 20.9277 32.1041C21.9371 31.9033 22.9194 31.6048 23.8746 31.214C24.8244 30.8179 25.7307 30.3349 26.5882 29.7596C27.4456 29.1843 28.238 28.5331 28.9706 27.8058C29.6979 27.0786 30.3491 26.2863 30.9244 25.4288C31.4942 24.5713 31.9772 23.665 32.3734 22.7098C32.7696 21.7601 33.0681 20.7778 33.2689 19.7629C33.4697 18.7535 33.5674 17.7332 33.5674 16.702C33.5674 15.6655 33.4697 14.6452 33.2689 13.6357C33.0681 12.6209 32.7696 11.644 32.3734 10.6888C31.9772 9.73365 31.4942 8.83275 30.9244 7.97527C30.3491 7.11779 29.6979 6.32001 28.9706 5.59278C28.238 4.86555 27.4456 4.2143 26.5882 3.63903C25.7307 3.06376 24.8244 2.58075 23.8746 2.19C22.9194 1.79382 21.9371 1.49533 20.9277 1.29453C19.9128 1.09373 18.8926 0.990616 17.8614 0.990616Z" fill="#FF5C5C"/>
<path d="M68.1271 0.990616C67.0959 0.990616 66.0756 1.09373 65.0662 1.29453C64.0513 1.49533 63.069 1.79382 62.1193 2.19C61.1641 2.58075 60.2578 3.06376 59.4003 3.63903C58.5428 4.2143 57.7505 4.86555 57.0232 5.59278C56.2906 6.32001 55.6393 7.11779 55.0695 7.97527C54.4942 8.83275 54.0112 9.73365 53.615 10.6888C53.2243 11.644 52.9258 12.6263 52.725 13.6357C52.5242 14.6452 52.4211 15.6709 52.4211 16.702C52.4211 17.7332 52.5242 18.7535 52.725 19.7629C52.9258 20.7778 53.2243 21.7601 53.615 22.7098C54.0112 23.665 54.4942 24.5713 55.0695 25.4288C55.6393 26.2863 56.2906 27.0786 57.0232 27.8058C57.7505 28.5385 58.5428 29.1843 59.4003 29.7596C60.2578 30.3349 61.1641 30.8179 62.1193 31.214C63.069 31.6048 64.0513 31.9033 65.0662 32.1041C66.0756 32.3049 67.0959 32.408 68.1271 32.408C69.1582 32.408 70.1839 32.3049 71.1934 32.1041C72.2028 31.9033 73.1851 31.6048 74.1403 31.214C75.09 30.8179 75.9963 30.3349 76.8538 29.7596C77.7113 29.1843 78.5036 28.5385 79.2363 27.8058C79.9635 27.0786 80.6148 26.2863 81.1901 25.4288C81.7599 24.5713 82.2483 23.665 82.6391 22.7098C83.0353 21.7601 83.3337 20.7778 83.5346 19.7629C83.7354 18.7535 83.8385 17.7332 83.8385 16.702C83.8385 15.6709 83.7354 14.6452 83.5346 13.6357C83.3337 12.6263 83.0353 11.644 82.6391 10.6888C82.2483 9.73365 81.7599 8.83275 81.1901 7.97527C80.6148 7.11779 79.9635 6.32001 79.2363 5.59278C78.5036 4.86555 77.7113 4.2143 76.8538 3.63903C75.9963 3.06376 75.09 2.58075 74.1403 2.19C73.1851 1.79382 72.2028 1.49533 71.1934 1.29453C70.1839 1.09373 69.1582 0.990616 68.1271 0.990616Z" fill="#A8A8A8"/>
<path d="M118.393 0.990616C117.362 0.990616 116.341 1.09373 115.332 1.29453C114.317 1.49533 113.335 1.79382 112.385 2.19C111.43 2.58075 110.523 3.06376 109.666 3.63903C108.808 4.2143 108.016 4.86555 107.289 5.59278C106.556 6.32001 105.905 7.11779 105.335 7.97527C104.76 8.83275 104.277 9.73365 103.881 10.6888C103.49 11.644 103.191 12.6209 102.991 13.6357C102.79 14.6452 102.687 15.6655 102.687 16.702C102.687 17.7332 102.79 18.7535 102.991 19.7629C103.191 20.7778 103.49 21.7601 103.881 22.7098C104.277 23.665 104.76 24.5713 105.335 25.4288C105.905 26.2863 106.556 27.0786 107.289 27.8058C108.016 28.5331 108.808 29.1843 109.666 29.7596C110.523 30.3349 111.43 30.8179 112.385 31.214C113.335 31.6048 114.317 31.9033 115.332 32.1041C116.341 32.3049 117.362 32.408 118.393 32.408C119.424 32.408 120.45 32.3049 121.459 32.1041C122.468 31.9033 123.451 31.6048 124.406 31.214C125.361 30.8179 126.262 30.3349 127.119 29.7596C127.977 29.1843 128.775 28.5331 129.502 27.8058C130.229 27.0786 130.88 26.2863 131.456 25.4288C132.026 24.5713 132.514 23.665 132.905 22.7098C133.301 21.7601 133.599 20.7778 133.8 19.7629C134.001 18.7535 134.104 17.7332 134.104 16.702C134.104 15.6655 134.001 14.6452 133.8 13.6357C133.599 12.6209 133.301 11.644 132.905 10.6888C132.514 9.73365 132.026 8.83275 131.456 7.97527C130.88 7.11779 130.229 6.32001 129.502 5.59278C128.775 4.86555 127.977 4.2143 127.119 3.63903C126.262 3.06376 125.361 2.58075 124.406 2.19C123.451 1.79382 122.468 1.49533 121.459 1.29453C120.45 1.09373 119.424 0.990616 118.393 0.990616Z" fill="#FFBD4A"/>
</svg>
