<svg width="335" height="145" viewBox="0 0 335 145" fill="none" xmlns="http://www.w3.org/2000/svg">
<path d="M7.5052 7.09375H326.505V133.089H7.5052V7.09375Z" stroke="black" stroke-width="14.0247"/>
<path d="M131.925 58.2791C131.925 59.4353 131.57 60.3311 130.862 60.9666C130.154 61.6072 129.164 61.9249 127.904 61.9249H94.0288C92.7059 61.9249 91.7163 61.6072 91.0497 60.9666C90.383 60.3311 90.0497 59.4353 90.0497 58.2791V49.7582C90.0497 47.3416 91.3726 46.1332 94.0288 46.1332H127.904C129.164 46.1332 130.154 46.4405 130.862 47.0499C131.57 47.6645 131.925 48.5655 131.925 49.7582V58.2791ZM134.945 75.6332C134.279 78.9561 133.216 81.8311 131.758 84.2582C132.091 84.3311 132.435 84.4145 132.8 84.5082C133.159 84.6072 133.518 84.6905 133.883 84.7582C134.591 84.9145 135.133 85.3103 135.508 85.9457C135.883 86.5707 136.117 87.2999 136.216 88.1332C136.31 88.9561 136.268 89.8155 136.091 90.7166C135.925 91.602 135.643 92.4041 135.258 93.1124C134.867 93.8207 134.373 94.3728 133.779 94.7791C133.18 95.1957 132.492 95.3103 131.716 95.1332C130.326 94.8259 129.013 94.4041 127.779 93.8624C126.555 93.3207 125.383 92.6749 124.258 91.9249C123.06 92.6332 121.768 93.2582 120.383 93.7999C119.008 94.3416 117.498 94.7999 115.862 95.1749C114.998 95.3676 114.242 95.1801 113.591 94.6124C112.935 94.0551 112.404 93.3311 111.987 92.4457C111.873 93.1124 111.518 93.6645 110.925 94.1124C110.326 94.5551 109.623 94.8832 108.82 95.0916C108.029 95.2999 107.185 95.3728 106.3 95.3207C105.425 95.2634 104.623 95.0968 103.904 94.8207C103.18 94.5395 102.602 94.1384 102.175 93.6124C101.742 93.0811 101.581 92.4301 101.695 91.6541L101.862 90.6332C99.9142 91.2686 97.8622 91.8051 95.6955 92.2374C93.5288 92.6645 91.3049 92.9718 89.0288 93.1541C88.4299 93.1957 87.909 92.9926 87.4663 92.5499C87.0184 92.102 86.6538 91.5291 86.3622 90.8207C86.0809 90.102 85.909 89.3207 85.8413 88.4874C85.7684 87.6541 85.8049 86.8832 85.9455 86.1749C86.0965 85.4561 86.3726 84.8416 86.7788 84.3416C87.1955 83.8416 87.7424 83.5916 88.4247 83.5916C88.6017 83.5916 88.7997 83.5864 89.008 83.5707C89.2163 83.5447 89.409 83.5291 89.5913 83.5291V68.5291H88.5288C87.6382 68.5291 86.9663 68.2582 86.508 67.7166C86.0601 67.1749 85.8413 66.5655 85.8413 65.8832C85.8413 65.2166 86.0601 64.6124 86.508 64.0707C86.9663 63.5291 87.6382 63.2582 88.5288 63.2582H133.508C134.393 63.2582 135.055 63.5291 135.487 64.0707C135.914 64.6124 136.117 65.227 136.091 65.9041C136.076 66.5707 135.852 67.1749 135.425 67.7166C134.992 68.2582 134.352 68.5291 133.508 68.5291H110.758C110.758 69.9457 110.758 71.3103 110.758 72.6124C110.758 73.9197 110.784 75.253 110.841 76.6124C110.893 77.977 110.972 79.4561 111.07 81.0499C111.164 82.6332 111.289 84.4145 111.445 86.3832C111.805 85.4145 112.404 84.8728 113.237 84.7582C113.831 84.6905 114.388 84.6072 114.904 84.5082C115.43 84.4145 115.951 84.3103 116.466 84.1957C115.841 83.2686 115.268 82.3364 114.758 81.4041C114.258 80.477 113.805 79.5239 113.404 78.5499C113.097 77.8832 113.06 77.2739 113.3 76.7166C113.55 76.1489 113.914 75.6957 114.404 75.3624H114.07C113.248 75.3624 112.638 75.0864 112.237 74.5291C111.847 73.9614 111.654 73.3572 111.654 72.7166C111.654 72.0499 111.847 71.4405 112.237 70.8832C112.638 70.3155 113.248 70.0291 114.07 70.0291H131.029C131.847 70.0291 132.534 70.2166 133.091 70.5916C133.659 70.9666 134.102 71.4405 134.425 72.0082C134.742 72.5655 134.935 73.1697 135.008 73.8207C135.091 74.477 135.07 75.0811 134.945 75.6332ZM125.05 50.8832H96.9247V52.1749H125.05V50.8832ZM125.05 55.6957H96.9247V57.1541H125.05V55.6957ZM96.1538 68.5291V70.0291H104.091C104.091 69.7686 104.097 69.5186 104.112 69.2791C104.138 69.0447 104.154 68.7947 104.154 68.5291H96.1538ZM96.1538 74.6749V76.3624H103.716L103.883 74.6749H96.1538ZM118.445 75.3624C119.487 76.7791 120.388 77.9249 121.154 78.7999C121.914 79.6749 122.805 80.4666 123.82 81.1749C124.779 80.4249 125.612 79.5864 126.32 78.6541C127.039 77.727 127.659 76.628 128.175 75.3624H118.445ZM96.1538 81.0082V83.1332C97.3049 83.0655 98.4507 82.9666 99.5913 82.8416C100.727 82.7061 101.873 82.5811 103.029 82.4666C103.07 82.2061 103.097 81.9614 103.112 81.7374C103.138 81.5186 103.164 81.2739 103.195 81.0082H96.1538Z" fill="black"/>
<path d="M154.216 53.4666C154.852 54.3155 155.039 55.1541 154.779 55.9874C154.513 56.8103 154.039 57.4613 153.362 57.9457C152.695 58.4353 151.935 58.6749 151.091 58.6749C150.258 58.6749 149.56 58.2999 149.008 57.5499C148.716 57.1072 148.341 56.6072 147.883 56.0499C147.435 55.4822 146.966 54.8988 146.466 54.2999C145.966 53.7061 145.472 53.1332 144.987 52.5916C144.498 52.0499 144.05 51.5916 143.633 51.2166C142.883 50.4666 142.591 49.7113 142.758 48.9457C142.935 48.1853 143.352 47.5707 144.008 47.1124C144.659 46.6436 145.435 46.378 146.341 46.3207C147.258 46.2686 148.091 46.5916 148.841 47.2999C149.326 47.7478 149.826 48.2582 150.341 48.8416C150.867 49.4249 151.373 49.9978 151.862 50.5499C152.347 51.1072 152.789 51.6436 153.195 52.1541C153.612 52.6541 153.951 53.0916 154.216 53.4666ZM190.112 76.4666C190.112 77.6645 190.008 78.6645 189.8 79.4666C189.602 80.2738 189.185 80.9145 188.55 81.3832C187.909 81.8416 187.013 82.128 185.862 82.2374C184.706 82.352 183.195 82.3363 181.32 82.1957C180.654 82.1124 180.102 81.9197 179.675 81.6124C179.242 81.2947 178.93 80.9041 178.737 80.4457H167.154C165.097 80.4457 164.07 79.4978 164.07 77.5916V71.4874C164.07 69.6541 165.097 68.7374 167.154 68.7374H169.612V67.0082H165.195C164.414 67.0082 163.841 66.7686 163.466 66.2791C163.091 65.7947 162.904 65.253 162.904 64.6541C162.904 64.0603 163.097 63.5186 163.487 63.0291C163.873 62.5447 164.445 62.2999 165.195 62.2999H169.612V60.7999H162.237V79.1541C162.237 79.9041 161.904 80.4613 161.237 80.8207C160.581 81.1697 159.852 81.3363 159.05 81.3207C158.258 81.3103 157.534 81.128 156.883 80.7791C156.227 80.4197 155.904 79.878 155.904 79.1541V59.1124C155.904 56.727 157.175 55.5291 159.716 55.5291H163.008C162.826 55.128 162.633 54.7322 162.425 54.3416C162.216 53.9405 161.998 53.5395 161.779 53.1332H156.904C155.972 53.1332 155.279 52.8416 154.82 52.2582C154.373 51.6749 154.154 51.0499 154.154 50.3832C154.154 49.7061 154.373 49.0811 154.82 48.5082C155.279 47.9249 155.972 47.6332 156.904 47.6332H169.05V46.9666C169.05 46.2582 169.435 45.7322 170.216 45.3832C171.008 45.0238 171.873 44.8416 172.82 44.8416C173.748 44.8416 174.602 45.0238 175.383 45.3832C176.175 45.7322 176.57 46.2582 176.57 46.9666V47.6332H188.779C189.706 47.6332 190.404 47.9249 190.862 48.5082C191.331 49.0811 191.57 49.7061 191.57 50.3832C191.57 51.0499 191.331 51.6749 190.862 52.2582C190.404 52.8416 189.706 53.1332 188.779 53.1332H184.237C184.039 53.4666 183.826 53.852 183.591 54.2791C183.352 54.7113 183.117 55.128 182.883 55.5291H186.258C188.826 55.5291 190.112 56.727 190.112 59.1124V76.4666ZM188.987 82.7374C189.737 82.6697 190.352 82.8988 190.841 83.4249C191.326 83.9405 191.685 84.6124 191.925 85.4457C192.175 86.2686 192.284 87.1645 192.258 88.1332C192.242 89.0916 192.097 90.003 191.82 90.8624C191.539 91.7218 191.133 92.4509 190.591 93.0499C190.05 93.6436 189.367 93.9666 188.55 94.0082C183.81 94.2999 179.534 94.4666 175.716 94.5082C171.909 94.5499 168.518 94.3936 165.55 94.0499C162.591 93.7166 160.013 93.1645 157.82 92.4041C155.638 91.6384 153.784 90.6072 152.258 89.2999C151.102 91.2426 149.831 92.977 148.445 94.5082C147.888 95.1436 147.268 95.4457 146.591 95.4041C145.925 95.3624 145.268 95.0968 144.633 94.6124C144.008 94.1228 143.435 93.4926 142.925 92.7166C142.425 91.9353 142.07 91.0968 141.862 90.1957C141.664 89.2947 141.659 88.4197 141.841 87.5707C142.034 86.7113 142.487 85.9822 143.195 85.3832C143.638 85.0082 144.091 84.5916 144.55 84.1332C145.018 83.6645 145.472 83.1957 145.904 82.7374C146.331 82.2686 146.716 81.8207 147.05 81.4041C147.383 80.9874 147.643 80.6541 147.841 80.4041V66.6749H144.862C143.93 66.6749 143.222 66.378 142.737 65.7791C142.248 65.1853 142.008 64.5291 142.008 63.8207C142.008 63.0707 142.248 62.3988 142.737 61.7999C143.222 61.2061 143.93 60.9041 144.862 60.9041H150.3C151.492 60.9041 152.43 61.2166 153.112 61.8416C153.805 62.4561 154.154 63.3207 154.154 64.4457V78.5499C155.347 80.0395 156.831 81.1749 158.612 81.9666C160.388 82.7478 162.643 83.2791 165.383 83.5707C168.133 83.852 171.43 83.8988 175.279 83.7166C179.123 83.5238 183.695 83.1957 188.987 82.7374ZM168.508 53.1332C168.685 53.5395 168.862 53.9405 169.029 54.3416C169.195 54.7322 169.373 55.128 169.57 55.5291H175.883C176.143 55.128 176.393 54.7322 176.633 54.3416C176.883 53.9405 177.117 53.5395 177.341 53.1332H168.508ZM183.779 60.7999H175.716V62.2999H180.654C181.43 62.2999 182.008 62.5447 182.383 63.0291C182.758 63.5186 182.945 64.0603 182.945 64.6541C182.945 65.253 182.758 65.7947 182.383 66.2791C182.008 66.7686 181.43 67.0082 180.654 67.0082H175.716V68.7374H178.695C180.779 68.7374 181.82 69.6541 181.82 71.4874V76.8207C182.638 76.8936 183.164 76.8988 183.404 76.8416C183.654 76.7895 183.779 76.6072 183.779 76.2999V60.7999ZM176.279 73.0082H169.612V76.1332H176.279V73.0082Z" fill="black"/>
<path d="M248.133 75.1332C248.018 79.0916 247.727 82.3155 247.258 84.7999C246.8 87.2738 246.154 89.2114 245.321 90.6124C244.498 92.0134 243.498 92.9718 242.321 93.4874C241.154 94.0134 239.805 94.2791 238.279 94.2791H227.237C224.706 94.2791 222.888 93.6124 221.779 92.2791C220.68 90.9614 220.133 89.2791 220.133 87.2374V47.5707C220.133 46.727 220.518 46.0916 221.3 45.6749C222.091 45.2582 222.951 45.0499 223.883 45.0499C224.81 45.0499 225.664 45.2686 226.446 45.6957C227.237 46.128 227.633 46.7738 227.633 47.6332V62.0916C229.951 60.7061 232.206 58.9666 234.404 56.8832C236.612 54.7895 238.498 52.602 240.071 50.3207C240.513 49.6124 241.154 49.2738 241.987 49.2999C242.831 49.3155 243.602 49.5447 244.3 49.9874C244.992 50.4353 245.513 51.0395 245.862 51.7999C246.222 52.5655 246.138 53.378 245.612 54.2374C244.789 55.628 243.727 57.102 242.425 58.6541C241.117 60.1957 239.664 61.6905 238.071 63.1332C236.487 64.5655 234.805 65.8988 233.029 67.1332C231.263 68.3572 229.466 69.378 227.633 70.1957V81.0707C227.633 81.8936 227.805 82.4353 228.154 82.6957C228.513 82.9613 229.143 83.0916 230.05 83.0916H236.654C237.362 83.0916 237.935 82.9613 238.383 82.6957C238.826 82.4353 239.185 81.9666 239.466 81.2999C239.758 80.6228 239.992 79.7061 240.175 78.5499C240.367 77.3988 240.555 75.9249 240.737 74.1332C240.847 73.1228 241.289 72.3936 242.071 71.9457C242.862 71.4874 243.716 71.3207 244.633 71.4457C245.55 71.5603 246.367 71.9197 247.091 72.5291C247.826 73.1436 248.175 74.0082 248.133 75.1332ZM216.383 49.0916C215.852 50.1749 215.289 51.2582 214.696 52.3416C214.097 53.4249 213.477 54.4145 212.841 55.2999C212.841 55.7582 212.867 56.6905 212.925 58.0916C212.992 59.4822 213.071 61.1749 213.154 63.1749C213.248 65.1749 213.352 67.3832 213.466 69.7999C213.576 72.2061 213.706 74.6332 213.862 77.0916C214.013 79.5499 214.18 81.9666 214.362 84.3416C214.539 86.7166 214.748 88.8572 214.987 90.7582C215.097 91.7582 214.867 92.5916 214.3 93.2582C213.742 93.9353 213.013 94.4457 212.112 94.7791C211.222 95.1228 210.237 95.2999 209.154 95.2999C208.112 95.2999 207.138 95.1228 206.237 94.7791C205.347 94.4457 204.617 93.9353 204.05 93.2582C203.492 92.5916 203.289 91.7582 203.446 90.7582C203.737 88.7478 203.992 86.6541 204.216 84.4874C204.451 82.3207 204.654 80.1541 204.821 77.9874C204.987 75.8207 205.138 73.7061 205.279 71.6332C205.43 69.5655 205.56 67.6124 205.675 65.7791C205.492 65.9613 205.326 66.1436 205.175 66.3207C205.018 66.4874 204.852 66.6645 204.675 66.8416C203.893 67.6645 202.977 67.977 201.925 67.7791C200.883 67.5707 199.987 67.0863 199.237 66.3207C198.498 65.5447 198.013 64.6332 197.779 63.5916C197.555 62.5499 197.873 61.5811 198.737 60.6749C200.748 58.6332 202.685 56.3832 204.55 53.9249C206.425 51.4561 208.112 48.9145 209.612 46.2999C210.097 45.4405 210.789 44.9457 211.696 44.8207C212.612 44.6853 213.477 44.7947 214.3 45.1541C215.117 45.503 215.768 46.0291 216.258 46.7374C216.742 47.4457 216.784 48.2322 216.383 49.0916Z" fill="black"/>
<path d="M129.057 109.427H335V145H129.057V109.427Z" fill="white"/>
<path d="M194.047 132.425C193.948 132.008 193.724 131.79 193.38 131.758H191.693V118.258H192.109C193.302 118.258 194.151 118.79 194.651 119.842C194.745 120.066 194.849 120.336 194.964 120.654L195.734 122.883H196.464L196.38 117.571H183.568L183.464 122.883H184.193L184.964 120.654C185.323 119.602 185.797 118.904 186.38 118.571C186.766 118.362 187.245 118.258 187.818 118.258H188.234V131.758H185.88V132.425H194.047Z" fill="black"/>
<path d="M203.737 131.779H201.903V126.446C202.028 124.711 202.45 123.654 203.174 123.279C203.284 123.227 203.388 123.196 203.487 123.196C203.679 123.196 203.883 123.383 204.091 123.758C204.383 124.29 204.7 124.623 205.049 124.758C205.216 124.8 205.393 124.821 205.591 124.821C206.258 124.821 206.726 124.508 207.008 123.883C207.101 123.675 207.153 123.456 207.153 123.217C207.153 122.399 206.747 121.878 205.945 121.654C205.747 121.612 205.539 121.592 205.32 121.592C204.304 121.592 203.409 121.998 202.633 122.8C202.284 123.206 202.018 123.633 201.841 124.092L201.674 121.779H197.341V122.425H198.778V130.487C198.778 131.227 198.487 131.644 197.903 131.737C197.737 131.769 197.549 131.779 197.341 131.779V132.425H204.341C204.341 132.05 204.226 131.842 204.008 131.8C203.924 131.79 203.83 131.779 203.737 131.779Z" fill="black"/>
<path d="M216.883 132.675C218.076 132.675 218.826 132.237 219.133 131.362C219.227 131.029 219.305 130.607 219.362 130.092L218.716 130.071C218.617 131.211 218.326 131.79 217.841 131.8C217.477 131.774 217.3 131.362 217.3 130.571V125.404C217.3 123.336 216.341 122.066 214.425 121.592C213.935 121.482 213.404 121.425 212.821 121.425C210.581 121.425 209.175 121.915 208.591 122.883C208.435 123.123 208.362 123.383 208.362 123.675C208.362 124.316 208.664 124.717 209.279 124.883C209.43 124.925 209.591 124.946 209.758 124.946C210.466 124.946 210.946 124.602 211.196 123.904C211.222 123.81 211.268 123.649 211.341 123.425C211.518 122.758 211.748 122.342 212.029 122.175C212.206 122.092 212.414 122.05 212.654 122.05C213.43 122.05 213.893 122.524 214.05 123.467C214.117 123.816 214.154 124.227 214.154 124.696V126.321C209.914 126.404 207.789 127.524 207.779 129.675C207.779 131.149 208.414 132.092 209.696 132.508C210.081 132.618 210.508 132.675 210.966 132.675C212.367 132.675 213.393 132.149 214.05 131.092C214.185 130.873 214.3 130.649 214.383 130.425C214.727 131.842 215.56 132.592 216.883 132.675ZM212.258 131.612C211.425 131.571 210.998 130.836 210.987 129.404C210.987 128.321 211.43 127.612 212.321 127.279C212.805 127.128 213.414 127.04 214.154 127.008V129.404C213.847 130.56 213.347 131.269 212.654 131.529C212.498 131.586 212.367 131.612 212.258 131.612Z" fill="black"/>
<path d="M228.806 132.425H233.223C233.223 132.05 233.124 131.836 232.931 131.779C232.848 131.769 232.749 131.758 232.64 131.758H231.494V116.342H226.098V116.987H228.348V122.487C227.515 121.753 226.504 121.383 225.327 121.383C223.77 121.383 222.494 121.987 221.494 123.196C220.645 124.279 220.223 125.649 220.223 127.3C220.223 129.342 220.89 130.852 222.223 131.821C222.973 132.394 223.811 132.675 224.744 132.675C226.27 132.675 227.41 132.024 228.16 130.717C228.27 130.524 228.369 130.316 228.452 130.092L228.806 132.425ZM223.598 127.008C223.598 124.607 224.119 123.086 225.16 122.446C225.463 122.295 225.775 122.217 226.098 122.217C227.291 122.217 228.025 123.128 228.306 124.946C228.374 125.446 228.41 125.977 228.41 126.529C228.41 129.003 227.89 130.581 226.848 131.258C226.556 131.441 226.233 131.529 225.89 131.529C224.723 131.529 223.999 130.592 223.723 128.717C223.64 128.206 223.598 127.633 223.598 127.008Z" fill="black"/>
<path d="M239.888 122.05C240.94 122.092 241.477 122.998 241.492 124.758C241.492 125.54 241.263 126.019 240.805 126.196C240.471 126.31 239.971 126.352 239.305 126.321L237.721 126.237C237.846 123.503 238.565 122.107 239.888 122.05ZM244.513 129.883L243.909 129.675C243.451 130.691 242.727 131.378 241.742 131.737C241.336 131.878 240.935 131.946 240.534 131.946C239.211 131.946 238.357 131.107 237.971 129.425C237.831 128.732 237.747 127.915 237.721 126.967L240.013 127.029C242.664 127.112 244.206 126.696 244.638 125.779C244.732 125.545 244.784 125.29 244.784 125.008C244.784 123.607 244.06 122.581 242.617 121.925C241.81 121.592 240.898 121.425 239.888 121.425C238.013 121.425 236.56 122.06 235.534 123.321C234.742 124.31 234.346 125.54 234.346 127.008C234.346 129.399 235.242 131.066 237.034 132.008C237.893 132.451 238.867 132.675 239.951 132.675C241.878 132.675 243.268 131.998 244.117 130.633C244.284 130.399 244.414 130.149 244.513 129.883Z" fill="black"/>
<path d="M258.985 117.342C256.787 117.342 254.928 118.029 253.402 119.404C251.844 120.852 251.068 122.696 251.068 124.946C251.068 127.545 251.995 129.566 253.86 131.008C255.287 132.123 256.969 132.675 258.902 132.675C261.094 132.675 262.943 131.982 264.443 130.592C265.969 129.149 266.735 127.3 266.735 125.05C266.735 122.331 265.777 120.258 263.86 118.842C262.469 117.842 260.844 117.342 258.985 117.342ZM258.985 131.946C257.287 131.946 256.152 131.185 255.568 129.654C255.152 128.571 254.943 127.04 254.943 125.05C254.943 121.274 255.761 119.04 257.402 118.342C257.844 118.149 258.344 118.05 258.902 118.05C260.761 118.05 261.954 119.102 262.485 121.196C262.735 122.196 262.86 123.441 262.86 124.925C262.86 128.441 262.198 130.623 260.881 131.467C260.365 131.79 259.735 131.946 258.985 131.946Z" fill="black"/>
<path d="M275.002 131.779H273.252V122.446H276.044V121.779H273.252V121.654C273.252 119.17 273.44 117.691 273.815 117.217C274.007 116.982 274.263 116.862 274.585 116.862C275.002 116.862 275.341 117.175 275.606 117.8C275.924 118.566 276.132 119.008 276.231 119.133C276.523 119.456 276.856 119.623 277.231 119.633C277.908 119.633 278.356 119.373 278.565 118.842C278.617 118.717 278.648 118.581 278.648 118.425C278.648 117.706 278.216 117.128 277.356 116.696C276.731 116.378 275.971 116.217 275.085 116.217C273.153 116.217 271.757 116.915 270.898 118.3C270.367 119.165 270.106 120.217 270.106 121.467V121.779H268.106V122.446H270.106V130.487C270.075 131.352 269.45 131.779 268.231 131.779V132.425H275.606C275.606 132.05 275.492 131.842 275.273 131.8C275.19 131.79 275.096 131.779 275.002 131.779Z" fill="black"/>
<path d="M283.56 131.779H281.81V122.446H284.602V121.779H281.81V121.654C281.81 119.17 281.998 117.691 282.373 117.217C282.565 116.982 282.821 116.862 283.144 116.862C283.56 116.862 283.899 117.175 284.164 117.8C284.482 118.566 284.69 119.008 284.789 119.133C285.081 119.456 285.414 119.623 285.789 119.633C286.467 119.633 286.914 119.373 287.123 118.842C287.175 118.717 287.206 118.581 287.206 118.425C287.206 117.706 286.774 117.128 285.914 116.696C285.289 116.378 284.529 116.217 283.644 116.217C281.711 116.217 280.315 116.915 279.456 118.3C278.925 119.165 278.664 120.217 278.664 121.467V121.779H276.664V122.446H278.664V130.487C278.633 131.352 278.008 131.779 276.789 131.779V132.425H284.164C284.164 132.05 284.05 131.842 283.831 131.8C283.748 131.79 283.654 131.779 283.56 131.779Z" fill="black"/>
</svg>
